<svg width="36" height="24" viewBox="0 0 36 24" fill="none" xmlns="http://www.w3.org/2000/svg">
<mask id="mask0_1_11524" style="mask-type:luminance" maskUnits="userSpaceOnUse" x="0" y="0" width="36" height="24">
<rect width="36" height="24" fill="white"/>
</mask>
<g mask="url(#mask0_1_11524)">
<path fill-rule="evenodd" clip-rule="evenodd" d="M0 0H36V24H0V0Z" fill="#F50100"/>
<path fill-rule="evenodd" clip-rule="evenodd" d="M18.5625 19.2468L18.5547 21.6C18.5547 21.6 17.324 19.6887 17.4215 19.6887C17.519 19.6887 17.8844 19.0562 18.0347 18.7424C18.1851 18.4286 17.7081 18.2063 17.6282 18.4294C17.5484 18.6526 17.2215 18.9678 16.7746 19.2207C16.3276 19.4736 16.2289 18.8398 16.2289 18.6911C16.2289 18.5767 16.4039 18.5821 16.6797 18.5907C16.7622 18.5932 16.8537 18.5961 16.9522 18.5961C17.3801 18.5961 17.4215 17.7528 17.324 17.537C17.2696 17.4165 17.1439 17.5376 16.9496 17.7247C16.7957 17.8728 16.5989 18.0624 16.3604 18.2063C15.8207 18.5319 15.5214 18.1886 15.5214 17.8806C15.5214 17.7078 15.6328 17.7115 15.8054 17.7171C15.9405 17.7215 16.1132 17.7271 16.2992 17.6502C16.7228 17.475 17.0258 16.7408 16.9522 16.676C16.8931 16.6241 16.5484 16.8042 16.1642 17.0049C16.0692 17.0545 15.9718 17.1054 15.8757 17.1544C15.391 17.4013 15.1886 16.8184 15.1886 16.676C15.1886 16.5337 15.6437 16.5142 15.8757 16.5142C16.1077 16.5142 16.9403 16.0632 17.4215 15.4924C17.9027 14.9215 17.7659 14.2436 17.4215 14.0236C17.1824 13.8709 17.0189 14.09 16.8417 14.3276C16.7636 14.4323 16.6829 14.5405 16.5918 14.6221C16.4466 14.7522 16.2572 15.0984 16.082 15.4188C15.8979 15.7552 15.7294 16.0632 15.6437 16.0632C15.4764 16.0632 14.9675 15.5808 14.9675 15.5808L13.1508 16.0632C13.1508 16.0632 13.9015 16.426 14.1485 16.426C14.3956 16.426 14.4917 16.8219 14.4917 16.9075C14.4917 16.993 14.0819 17.1187 13.7911 17.0331C13.5003 16.9476 13.6783 16.676 13.6783 16.676L12.7249 16.1889C12.7249 16.1889 11.9839 16.426 11.9839 16.676C11.9839 16.926 11.6489 17.0331 11.253 17.0331C10.857 17.0331 10.9095 16.889 11.253 16.426C11.3296 16.3228 11.3851 16.2656 11.4253 16.2391C11.4517 16.2396 11.479 16.2398 11.5074 16.2394C11.5406 16.2904 11.5175 16.426 11.5175 16.426C11.5175 16.426 12.5786 16.0748 11.9839 16.1889C11.8 16.2242 11.6423 16.2376 11.5074 16.2394C11.4929 16.2172 11.4677 16.211 11.4253 16.2391C11.2739 16.2358 11.1548 16.2186 11.0624 16.2052C10.9998 16.1962 10.9494 16.1889 10.9095 16.1889C10.7514 16.1889 10.125 15.8622 10.125 15.8622C10.125 15.8622 10.3538 15.6548 10.9095 15.6548C11.4652 15.6548 11.253 15.8622 11.253 15.8622H12.5786C12.5786 15.8622 11.9839 15.4924 11.7893 15.4924C11.6908 15.4924 11.5547 15.4192 11.4202 15.347C11.2889 15.2764 11.1592 15.2068 11.0676 15.2068C10.8822 15.2068 10.9095 14.8341 11.253 14.8341C11.5965 14.8341 11.9839 15.0983 11.9839 15.2068C11.9839 15.3152 12.7249 15.6548 12.7249 15.6548L14.6708 15.2068C14.6708 15.2068 14.3848 14.6221 14.6708 14.6221C14.9568 14.6221 15.8618 14.1008 16.2289 13.4488C16.596 12.7968 16.5566 12.4929 16.3604 12.4929C16.1642 12.4929 15.9974 12.7844 15.9974 12.9086C15.9974 13.0328 15.5245 13.674 15.4141 13.8126C15.3038 13.9513 14.9124 13.674 15.1886 13.3344C15.4334 13.0333 15.4214 12.5837 15.4155 12.3631C15.4148 12.3348 15.4141 12.3103 15.4141 12.2903C15.4141 12.1147 14.9124 12.4659 14.9124 13.0915C14.9124 13.7171 13.8028 13.9536 13.492 13.9536C13.1813 13.9536 13.492 13.4488 14.0819 13.3344C14.5458 13.2444 14.4674 12.7086 14.4127 12.335C14.3979 12.2335 14.3848 12.144 14.3848 12.0786C14.3848 11.7726 13.6783 12.5188 13.4032 12.9086C13.1281 13.2984 11.9839 14.2333 11.6489 14.3554C11.314 14.4774 10.6755 14.09 10.5216 13.8126C10.4085 13.609 10.7561 13.5712 11.2346 13.5192C11.4076 13.5004 11.5977 13.4798 11.7893 13.4488C12.511 13.332 13.492 12.0786 13.6783 11.8362C13.8646 11.5939 13.4032 11.4133 13.1508 11.8362C12.9001 12.2563 11.6664 12.6519 11.2614 12.7817L11.253 12.7844C10.857 12.9114 10.5216 12.3367 10.5216 12.0786C10.5216 11.9236 10.7185 11.9548 11.0321 12.0044C11.2407 12.0374 11.501 12.0786 11.7893 12.0786C12.511 12.0786 13.4032 10.9598 13.4032 10.6798C13.4032 10.3998 13.008 10.522 12.7249 10.6798C12.6541 10.7193 12.5723 10.7751 12.4822 10.8366C12.2122 11.021 11.8672 11.2565 11.5175 11.2565C11.0511 11.2565 10.6755 10.9598 10.6755 10.9598C10.6755 10.9598 10.5216 10.522 10.9095 10.522H11.9839C12.5586 10.522 13.492 9.43949 13.492 9.23821C13.492 9.12844 13.049 9.30386 12.5888 9.48605C12.2051 9.63795 11.8096 9.79456 11.6489 9.79456C11.2956 9.79456 10.5216 9.50273 10.5216 9.23821C10.5216 9.13089 10.5216 9.07891 10.5475 9.05503C10.5854 9.02005 10.679 9.04537 10.9095 9.04537C11.0835 9.04537 11.2502 9.08418 11.434 9.12698C11.66 9.17958 11.9118 9.23821 12.2348 9.23821C12.6307 9.23821 12.9635 8.96646 13.1793 8.79022C13.2828 8.70564 13.3594 8.64306 13.4032 8.64306C13.5381 8.64306 13.2683 8.23303 13.008 8.23303C12.9003 8.23303 12.738 8.30334 12.5479 8.38573C12.2789 8.5023 11.9542 8.64306 11.6489 8.64306C11.1279 8.64306 10.5216 7.90445 10.5216 7.70702C10.5216 7.5096 10.811 7.58112 11.253 7.70702C11.695 7.83293 12.0151 7.92331 13.008 7.70702C14.001 7.49073 13.4032 7.17109 13.1508 7.17109H11.253C10.5215 7.17109 10.5216 6.23151 10.5216 6.05498L10.5216 6.05223C10.5216 5.91931 10.6751 5.99513 11.0501 6.18039C11.1527 6.23107 11.2719 6.28994 11.4091 6.35498C11.9059 6.59056 12.5751 6.54731 13.0514 6.51653C13.1871 6.50775 13.3072 6.49999 13.4032 6.49999C13.8358 6.49999 13.1508 6.05223 13.1508 6.05223C13.1508 6.05223 12.5075 6.05223 11.4091 5.63663C10.3106 5.22103 10.5216 4.0851 10.5216 4.0851C10.5216 4.0851 10.8494 3.67932 11.0676 4.0851C11.2859 4.49088 12.6723 5.51261 13.1508 5.51261C13.4488 5.51261 13.4409 5.4273 13.4344 5.35601C13.4304 5.31285 13.4269 5.27483 13.492 5.264C13.6648 5.2353 15.0581 5.6535 15.0581 5.6535C15.6249 5.68973 15.7124 6.43388 15.7124 6.87442C15.7124 7.31496 16.1305 7.70702 16.7746 7.70702C17.2569 7.70702 17.0625 7.0641 16.9002 6.52762C16.8458 6.34779 16.795 6.17992 16.7746 6.05223C16.6931 5.54362 14.9124 5.24973 14.9124 5.24973C14.2823 5.16107 14.3848 4.84085 14.3848 4.84085C14.6216 4.83314 14.9675 4.70642 14.9675 4.70642C15.3475 4.63047 13.4032 4.46158 13.4032 4.46158C12.9723 4.4264 13.1508 3.96271 13.1508 3.96271C13.1508 3.75289 13.3369 3.86462 13.6027 4.02414C13.8572 4.1769 14.1848 4.37347 14.4917 4.37347C15.1193 4.37347 14.3078 3.96271 14.0819 3.96271C14.0506 3.96271 14.0363 3.96271 14.0362 3.96196C14.036 3.95728 14.589 3.92346 15.0581 3.67932C15.3495 3.5277 15.6159 3.61945 15.9588 3.73755C16.2567 3.84018 16.6125 3.96271 17.0927 3.96271C17.6785 3.96271 17.668 4.28362 17.655 4.68485C17.6451 4.99098 17.6337 5.34386 17.8844 5.63663C18.295 6.11621 18.4861 6.20977 18.5625 6.2236C18.6389 6.20977 18.83 6.11621 19.2406 5.63663C19.4913 5.34386 19.4799 4.99098 19.47 4.68485C19.457 4.28362 19.4465 3.96271 20.0323 3.96271C20.5125 3.96271 20.8683 3.84018 21.1662 3.73755C21.5091 3.61945 21.7755 3.5277 22.0669 3.67932C22.536 3.92346 23.089 3.95728 23.0888 3.96196C23.0887 3.96271 23.0744 3.96271 23.0431 3.96271C22.8172 3.96271 22.0057 4.37347 22.6333 4.37347C22.9402 4.37347 23.2678 4.1769 23.5223 4.02414C23.7881 3.86462 23.9742 3.75289 23.9742 3.96271C23.9742 3.96271 24.1527 4.4264 23.7218 4.46158C23.7218 4.46158 21.7775 4.63047 22.1575 4.70642C22.1575 4.70642 22.5034 4.83314 22.7402 4.84085C22.7402 4.84085 22.8427 5.16107 22.2126 5.24973C22.2126 5.24973 20.4319 5.54362 20.3504 6.05223C20.33 6.17992 20.2792 6.34779 20.2248 6.52762C20.0625 7.0641 19.8681 7.70702 20.3504 7.70702C20.9945 7.70702 21.4126 7.31496 21.4126 6.87442C21.4126 6.43388 21.5001 5.68973 22.0669 5.6535C22.0669 5.6535 23.4602 5.2353 23.633 5.264C23.6981 5.27483 23.6946 5.31285 23.6906 5.35601C23.6841 5.4273 23.6762 5.51261 23.9742 5.51261C24.4527 5.51261 25.8391 4.49088 26.0574 4.0851C26.2756 3.67932 26.6034 4.0851 26.6034 4.0851C26.6034 4.0851 26.8144 5.22103 25.7159 5.63663C24.6175 6.05223 23.9742 6.05223 23.9742 6.05223C23.9742 6.05223 23.2892 6.49999 23.7218 6.49999C23.8178 6.49999 23.9379 6.50775 24.0736 6.51653C24.5499 6.54731 25.2191 6.59056 25.7159 6.35498C25.8531 6.28994 25.9723 6.23107 26.0749 6.18039C26.4499 5.99513 26.6034 5.91931 26.6034 6.05223V6.05498C26.6034 6.23151 26.6035 7.17109 25.872 7.17109H23.9742C23.7218 7.17109 23.124 7.49073 24.117 7.70702C25.1099 7.92331 25.43 7.83293 25.872 7.70702C26.314 7.58112 26.6034 7.5096 26.6034 7.70702C26.6034 7.90445 25.9971 8.64306 25.4761 8.64306C25.1708 8.64306 24.8461 8.5023 24.5771 8.38573C24.387 8.30334 24.2247 8.23303 24.117 8.23303C23.8567 8.23303 23.5869 8.64306 23.7218 8.64306C23.7656 8.64306 23.8422 8.70564 23.9457 8.79022C24.1615 8.96646 24.4943 9.23821 24.8902 9.23821C25.2132 9.23821 25.465 9.17958 25.691 9.12698C25.8748 9.08418 26.0415 9.04537 26.2155 9.04537C26.446 9.04537 26.5396 9.02005 26.5775 9.05503C26.6034 9.07891 26.6034 9.13089 26.6034 9.23821C26.6034 9.50273 25.8294 9.79456 25.4761 9.79456C25.3154 9.79456 24.9199 9.63795 24.5362 9.48605C24.076 9.30386 23.633 9.12844 23.633 9.23821C23.633 9.43949 24.5664 10.522 25.1411 10.522H26.2155C26.6034 10.522 26.4495 10.9598 26.4495 10.9598C26.4495 10.9598 26.0739 11.2565 25.6075 11.2565C25.2578 11.2565 24.9128 11.021 24.6428 10.8366C24.5527 10.7751 24.4709 10.7193 24.4001 10.6798C24.117 10.522 23.7218 10.3998 23.7218 10.6798C23.7218 10.9598 24.614 12.0786 25.3357 12.0786C25.624 12.0786 25.8843 12.0374 26.0929 12.0044C26.4065 11.9548 26.6034 11.9236 26.6034 12.0786C26.6034 12.3367 26.268 12.9114 25.872 12.7844L25.8636 12.7817C25.4586 12.6519 24.2249 12.2563 23.9742 11.8362C23.7218 11.4133 23.2604 11.5939 23.4467 11.8362C23.633 12.0786 24.614 13.332 25.3357 13.4488C25.5273 13.4798 25.7174 13.5004 25.8904 13.5192C26.3689 13.5712 26.7165 13.609 26.6034 13.8126C26.4495 14.09 25.811 14.4774 25.4761 14.3554C25.1411 14.2333 23.9969 13.2984 23.7218 12.9086C23.4467 12.5188 22.7402 11.7726 22.7402 12.0786C22.7402 12.144 22.7271 12.2335 22.7123 12.335C22.6576 12.7086 22.5792 13.2444 23.0431 13.3344C23.633 13.4488 23.9437 13.9536 23.633 13.9536C23.3222 13.9536 22.2126 13.7171 22.2126 13.0915C22.2126 12.4659 21.7109 12.1147 21.7109 12.2903C21.7109 12.3103 21.7102 12.3348 21.7095 12.3631C21.7036 12.5837 21.6916 13.0333 21.9364 13.3344C22.2126 13.674 21.8212 13.9513 21.7109 13.8126C21.6005 13.674 21.1276 13.0328 21.1276 12.9086C21.1276 12.7844 20.9608 12.4929 20.7646 12.4929C20.5684 12.4929 20.529 12.7968 20.8961 13.4488C21.2632 14.1008 22.1682 14.6221 22.4542 14.6221C22.7402 14.6221 22.4542 15.2068 22.4542 15.2068L24.4001 15.6548C24.4001 15.6548 25.1411 15.3152 25.1411 15.2068C25.1411 15.0983 25.5285 14.8341 25.872 14.8341C26.2155 14.8341 26.2428 15.2068 26.0574 15.2068C25.9658 15.2068 25.8361 15.2764 25.7048 15.347C25.5703 15.4192 25.4342 15.4924 25.3357 15.4924C25.1411 15.4924 24.5464 15.8622 24.5464 15.8622H25.872C25.872 15.8622 25.6598 15.6548 26.2155 15.6548C26.7712 15.6548 27 15.8622 27 15.8622C27 15.8622 26.3736 16.1889 26.2155 16.1889C26.1756 16.1889 26.1252 16.1962 26.0626 16.2052C25.9702 16.2186 25.8511 16.2358 25.6997 16.2391C25.6573 16.211 25.6321 16.2172 25.6176 16.2394C25.4827 16.2376 25.325 16.2242 25.1411 16.1889C24.5464 16.0748 25.6075 16.426 25.6075 16.426C25.6075 16.426 25.5844 16.2904 25.6176 16.2394C25.646 16.2398 25.6733 16.2396 25.6997 16.2391C25.7399 16.2656 25.7954 16.3228 25.872 16.426C26.2155 16.889 26.268 17.0331 25.872 17.0331C25.4761 17.0331 25.1411 16.926 25.1411 16.676C25.1411 16.426 24.4001 16.1889 24.4001 16.1889L23.4467 16.676C23.4467 16.676 23.6247 16.9476 23.3339 17.0331C23.0431 17.1187 22.6333 16.993 22.6333 16.9075C22.6333 16.8219 22.7294 16.426 22.9765 16.426C23.2235 16.426 23.9742 16.0632 23.9742 16.0632L22.1575 15.5808C22.1575 15.5808 21.6486 16.0632 21.4813 16.0632C21.3956 16.0632 21.2271 15.7552 21.043 15.4188C20.8678 15.0984 20.6784 14.7522 20.5332 14.6221C20.4421 14.5405 20.3614 14.4323 20.2833 14.3276C20.1061 14.09 19.9426 13.8709 19.7035 14.0236C19.3591 14.2436 19.2223 14.9215 19.7035 15.4924C20.1847 16.0632 21.0173 16.5142 21.2493 16.5142C21.4813 16.5142 21.9364 16.5337 21.9364 16.676C21.9364 16.8184 21.734 17.4013 21.2493 17.1544C21.1532 17.1054 21.0558 17.0545 20.9608 17.0049C20.5766 16.8042 20.2319 16.6241 20.1728 16.676C20.0992 16.7408 20.4022 17.475 20.8258 17.6502C21.0118 17.7271 21.1845 17.7215 21.3196 17.7171C21.4922 17.7115 21.6036 17.7078 21.6036 17.8806C21.6036 18.1886 21.3043 18.5319 20.7646 18.2063C20.5261 18.0624 20.3293 17.8728 20.1754 17.7247C19.9811 17.5376 19.8554 17.4165 19.801 17.537C19.7035 17.7528 19.7449 18.5961 20.1728 18.5961C20.2713 18.5961 20.3628 18.5932 20.4453 18.5907C20.7211 18.5821 20.8961 18.5767 20.8961 18.6911C20.8961 18.8398 20.7974 19.4736 20.3504 19.2207C19.9035 18.9678 19.5766 18.6526 19.4968 18.4294C19.4169 18.2063 18.9399 18.4286 19.0903 18.7424C19.2406 19.0562 19.606 19.6887 19.7035 19.6887C19.801 19.6887 18.5703 21.6 18.5703 21.6L18.5625 19.2468Z" fill="#1A1A1A"/>
</g>
</svg>
