<svg width="36" height="24" viewBox="0 0 36 24" fill="none" xmlns="http://www.w3.org/2000/svg">
<mask id="mask0_1_9413" style="mask-type:luminance" maskUnits="userSpaceOnUse" x="0" y="0" width="36" height="24">
<rect width="36" height="24" fill="white"/>
</mask>
<g mask="url(#mask0_1_9413)">
<path fill-rule="evenodd" clip-rule="evenodd" d="M0 0V24H36V0H0Z" fill="#EA1A1A"/>
<mask id="mask1_1_9413" style="mask-type:luminance" maskUnits="userSpaceOnUse" x="0" y="0" width="36" height="24">
<path fill-rule="evenodd" clip-rule="evenodd" d="M0 0V24H36V0H0Z" fill="white"/>
</mask>
<g mask="url(#mask1_1_9413)">
<path fill-rule="evenodd" clip-rule="evenodd" d="M17.8533 11.5748C17.8533 11.5748 11.3399 6.41151 19.1123 3.40314C19.1123 3.40314 21.3727 5.61975 19.677 8.10822C19.1206 8.92438 18.6514 9.5072 18.2988 9.94518C17.5764 10.8425 17.3434 11.1319 17.8533 11.5748ZM8.24039 7.86752C7.79305 15.3924 15.9009 12.5221 15.9009 12.5221C15.2276 12.7294 15.0405 12.4147 14.4606 11.4395L14.4606 11.4395C14.1775 10.9633 13.8007 10.3296 13.2279 9.52232C11.482 7.06136 8.24039 7.86752 8.24039 7.86752ZM20.518 11.8271C20.518 11.8271 28.8789 14.052 23.2718 19.7036C23.2718 19.7036 20.1676 18.5464 20.518 15.654C20.6329 14.7056 20.7801 14.0012 20.8908 13.4717L20.8908 13.4717C21.1176 12.3865 21.1907 12.0364 20.518 11.8271ZM18.3204 13.5617C18.3204 13.5617 19.8193 21.204 11.6254 19.2727C11.6254 19.2727 11.4024 16.2873 14.4696 15.2728C15.4758 14.94 16.2506 14.742 16.8329 14.5933L16.833 14.5933C18.0259 14.2885 18.4107 14.1902 18.3204 13.5617ZM28.6636 10.2753C23.5386 4.27314 19.4331 11.1185 19.4331 11.1185C19.7967 10.5737 20.1681 10.7065 21.3191 11.1182C21.8813 11.3193 22.6295 11.587 23.6537 11.8747C26.7743 12.7514 28.6636 10.2753 28.6636 10.2753Z" fill="white"/>
<path d="M11.194 10.3421L11.6688 10.074C12.7109 11.5319 14.0635 12.2492 15.7513 12.2492V12.7492C13.863 12.7492 12.3356 11.9391 11.194 10.3421Z" fill="#EA1A1A"/>
<path fill-rule="evenodd" clip-rule="evenodd" d="M24.4688 10.75C24.9347 10.75 25.3125 10.4142 25.3125 10C25.3125 9.58579 24.9347 9.25 24.4688 9.25C24.0028 9.25 23.625 9.58579 23.625 10C23.625 10.4142 24.0028 10.75 24.4688 10.75Z" fill="#EA1A1A"/>
<path fill-rule="evenodd" clip-rule="evenodd" d="M22.4534 15.7281C22.9194 15.7281 23.2971 15.3923 23.2971 14.9781C23.2971 14.5639 22.9194 14.2281 22.4534 14.2281C21.9874 14.2281 21.6096 14.5639 21.6096 14.9781C21.6096 15.3923 21.9874 15.7281 22.4534 15.7281Z" fill="#EA1A1A"/>
<path fill-rule="evenodd" clip-rule="evenodd" d="M15.7034 17.7281C16.1694 17.7281 16.5471 17.3923 16.5471 16.9781C16.5471 16.5639 16.1694 16.2281 15.7034 16.2281C15.2374 16.2281 14.8596 16.5639 14.8596 16.9781C14.8596 17.3923 15.2374 17.7281 15.7034 17.7281Z" fill="#EA1A1A"/>
<path fill-rule="evenodd" clip-rule="evenodd" d="M11.2034 10.7281C11.6694 10.7281 12.0471 10.3923 12.0471 9.97809C12.0471 9.56387 11.6694 9.22809 11.2034 9.22809C10.7374 9.22809 10.3596 9.56387 10.3596 9.97809C10.3596 10.3923 10.7374 10.7281 11.2034 10.7281Z" fill="#EA1A1A"/>
<path fill-rule="evenodd" clip-rule="evenodd" d="M17.9534 7.72809C18.4194 7.72809 18.7971 7.3923 18.7971 6.97809C18.7971 6.56387 18.4194 6.22809 17.9534 6.22809C17.4874 6.22809 17.1096 6.56387 17.1096 6.97809C17.1096 7.3923 17.4874 7.72809 17.9534 7.72809Z" fill="#EA1A1A"/>
<path d="M17.5889 7.05279L18.0834 7.29106C17.1467 8.82705 17.0806 10.2438 17.8738 11.5698L17.3772 11.8046C16.4915 10.3239 16.5658 8.73045 17.5889 7.05279Z" fill="#EA1A1A"/>
<path d="M24.7668 9.6858L24.6825 10.1802C22.4823 9.88365 20.8353 10.2963 19.7076 11.4096L19.2895 11.075C20.5547 9.82601 22.3918 9.36576 24.7668 9.6858Z" fill="#EA1A1A"/>
<path d="M22.8951 15.3649L22.3437 15.4635C21.9046 13.5243 20.9051 12.2897 19.3424 11.7285L19.5531 11.2649C21.3063 11.8945 22.4211 13.2716 22.8951 15.3649Z" fill="#EA1A1A"/>
<path d="M15.6449 17.15L15.352 16.7232C17.2519 15.6931 18.2152 14.436 18.274 12.9388L18.8361 12.9563C18.7701 14.636 17.6957 16.0382 15.6449 17.15Z" fill="#EA1A1A"/>
</g>
</g>
</svg>
