<svg xmlns="http://www.w3.org/2000/svg" width="36" height="24" viewBox="0 0 36 24" fill="none">
<mask id="mask0_1_7177" style="mask-type:luminance" maskUnits="userSpaceOnUse" x="0" y="0" width="36" height="24">
<rect width="36" height="24" fill="white"/>
</mask>
<g mask="url(#mask0_1_7177)">
<path fill-rule="evenodd" clip-rule="evenodd" d="M9 0H36V24H9V0Z" fill="#EF0000"/>
<path fill-rule="evenodd" clip-rule="evenodd" d="M0 0H13.5V24H0V0Z" fill="#2F8D00"/>
<mask id="mask1_1_7177" style="mask-type:luminance" maskUnits="userSpaceOnUse" x="4" y="4" width="19" height="16">
<path fill-rule="evenodd" clip-rule="evenodd" d="M13.3928 19.8072C8.59976 19.8072 4.71423 16.3118 4.71423 12C4.71423 7.6882 8.59976 4.19278 13.3928 4.19278C18.1858 4.19278 22.0714 7.6882 22.0714 12C22.0714 16.3118 18.1858 19.8072 13.3928 19.8072Z" fill="white"/>
</mask>
<g mask="url(#mask1_1_7177)">
<path fill-rule="evenodd" clip-rule="evenodd" d="M12.857 4H13.982V6.6988H12.857V4Z" fill="#FFE017"/>
<path fill-rule="evenodd" clip-rule="evenodd" d="M12.857 17.494H13.982V20H12.857V17.494Z" fill="#FFE017"/>
<path d="M4.85365 12.4038L4.53912 11.6865C8.00996 10.4548 10.6296 9.6605 12.4071 9.30252C15.015 8.77732 17.8804 8.38873 21.0036 8.13647L21.0803 8.90447C17.9929 9.15383 15.1642 9.53743 12.5943 10.055C10.8698 10.4023 8.28651 11.1856 4.85365 12.4038Z" fill="#FFE017"/>
<path d="M21.5334 7.6639L21.2782 8.40001C18.655 7.66389 16.5182 7.34748 14.8756 7.44548L14.8189 6.67609C16.5824 6.57086 18.818 6.90189 21.5334 7.6639Z" fill="#FFE017"/>
<path d="M22.4411 11.7798L21.9562 12.4156C20.6189 11.5904 18.9714 11.1758 17.0024 11.1758V10.4048C19.137 10.4048 20.9536 10.8618 22.4411 11.7798Z" fill="#FFE017"/>
<path d="M21.7148 12.0106L21.9364 12.7554C19.0534 13.4496 16.3468 13.8434 13.8161 13.9361C11.2681 14.0295 8.29821 13.6343 4.90405 12.7534L5.14163 12.0126C8.4533 12.872 11.334 13.2554 13.7812 13.1657C16.2459 13.0754 18.8905 12.6906 21.7148 12.0106Z" fill="#FFE017"/>
<path d="M21.3881 15.6359L20.0333 16.8706C17.4585 14.584 15.1917 12.949 13.2468 11.9667C11.2687 10.9675 8.6891 9.95293 5.51196 8.92703L6.1635 7.2941C9.43433 8.35025 12.1088 9.40215 14.191 10.4539C16.3064 11.5224 18.7008 13.2494 21.3881 15.6359Z" fill="#FFE017"/>
<path d="M6.14059 16.3353L5.62775 15.7175C5.69936 15.6694 5.82715 15.5891 6.00321 15.4875C6.29391 15.3196 6.61672 15.152 6.96403 14.9954C7.92062 14.5641 8.88018 14.2947 9.79538 14.27C9.84014 14.2688 9.88471 14.2682 9.92909 14.2682V15.0393C9.89334 15.0393 9.85735 15.0398 9.82113 15.0407C9.04986 15.0616 8.20289 15.2993 7.34812 15.6847C7.02952 15.8284 6.73266 15.9825 6.46624 16.1364C6.37351 16.1899 6.29146 16.2394 6.22115 16.2836C6.18016 16.3093 6.15296 16.327 6.14059 16.3353Z" fill="#FFE017"/>
<path d="M6.53864 16.6026L6.75449 15.8563C9.61212 16.5253 11.8152 16.8586 13.3527 16.8586C14.8845 16.8586 17.1644 16.4654 20.1777 15.6763L20.4172 16.4166C17.3327 17.2245 14.9828 17.6297 13.3527 17.6297C11.7284 17.6297 9.46065 17.2866 6.53864 16.6026Z" fill="#FFE017"/>
<path d="M5.42517 9.69443L6.78313 8.46249L8.77137 10.2361L7.41341 11.4681L5.42517 9.69443Z" fill="#FFE017"/>
<path d="M16.6904 15.8478L17.7005 14.3698L20.8546 16.1143L19.8445 17.5922L16.6904 15.8478Z" fill="#FFE017"/>
</g>
<path fill-rule="evenodd" clip-rule="evenodd" d="M4.71423 12C4.71423 16.3118 8.59976 19.8072 13.3928 19.8072C18.1858 19.8072 22.0714 16.3118 22.0714 12C22.0714 7.6882 18.1858 4.19278 13.3928 4.19278C8.59976 4.19278 4.71423 7.6882 4.71423 12ZM20.9999 12.0964C20.9999 15.8226 17.642 18.8434 13.4999 18.8434C9.35777 18.8434 5.99991 15.8226 5.99991 12.0964C5.99991 8.37012 9.35777 5.3494 13.4999 5.3494C17.642 5.3494 20.9999 8.37012 20.9999 12.0964Z" fill="#F9E813"/>
<path d="M8.61371 7.18527V13.446C9.07736 15.9241 10.6394 17.1631 13.2998 17.1631C15.9602 17.1631 17.5222 15.9241 17.9858 13.446V7.18527H8.61371Z" fill="white"/>
<path d="M7.97083 6.60696H18.6287V13.4943L18.6197 13.542C18.1049 16.2936 16.2797 17.7414 13.2997 17.7414C10.3197 17.7414 8.49458 16.2936 7.97974 13.542L7.97083 13.4943V6.60696Z" fill="#C51918"/>
<path d="M10.4087 8.71069H16.1909V13.1516C16.1909 13.1516 15.7618 15.4449 13.2998 15.4449C10.8378 15.4449 10.4087 13.1516 10.4087 13.1516V8.71069Z" fill="#F7FCFF"/>
<path fill-rule="evenodd" clip-rule="evenodd" d="M9 7.08435H9.81325V7.56628H9V7.08435Z" fill="#F9E813"/>
<path fill-rule="evenodd" clip-rule="evenodd" d="M8.57141 7.27712H10.0714V7.51809H8.57141V7.27712Z" fill="#060101"/>
<path fill-rule="evenodd" clip-rule="evenodd" d="M8.57141 7.46989H9.38466V7.71086H8.57141V7.46989Z" fill="#F9E813"/>
<path fill-rule="evenodd" clip-rule="evenodd" d="M9.42859 7.46988H10.2418V7.71084H9.42859V7.46988Z" fill="#F9E813"/>
<path fill-rule="evenodd" clip-rule="evenodd" d="M8.57141 8.0482H9.11358V8.77109H8.57141V8.0482Z" fill="#F9E813"/>
<path fill-rule="evenodd" clip-rule="evenodd" d="M9.64282 8.04822H10.185V8.77111H9.64282V8.04822Z" fill="#F9E813"/>
<path fill-rule="evenodd" clip-rule="evenodd" d="M9.21423 8.04822H9.48532V8.77111H9.21423V8.04822Z" fill="#F9E813"/>
<path fill-rule="evenodd" clip-rule="evenodd" d="M8.57141 7.85544H10.0714V8.0964H8.57141V7.85544Z" fill="#060101"/>
<path fill-rule="evenodd" clip-rule="evenodd" d="M8.57141 8.43375H10.0714V8.67471H8.57141V8.43375Z" fill="#060101"/>
<path fill-rule="evenodd" clip-rule="evenodd" d="M8.78564 7.66266H9.05673V7.90362H8.78564V7.66266Z" fill="#F9E813"/>
<path fill-rule="evenodd" clip-rule="evenodd" d="M9.64282 7.66266H9.91391V7.90362H9.64282V7.66266Z" fill="#F9E813"/>
<path fill-rule="evenodd" clip-rule="evenodd" d="M9.21423 7.46988H9.48532V7.95181H9.21423V7.46988Z" fill="#F9E813"/>
<path fill-rule="evenodd" clip-rule="evenodd" d="M13.0714 7.08435H13.8846V7.56628H13.0714V7.08435Z" fill="#F9E813"/>
<path fill-rule="evenodd" clip-rule="evenodd" d="M12.6428 7.27712H14.1428V7.51809H12.6428V7.27712Z" fill="#060101"/>
<path fill-rule="evenodd" clip-rule="evenodd" d="M12.6428 7.46989H13.456V7.71086H12.6428V7.46989Z" fill="#F9E813"/>
<path fill-rule="evenodd" clip-rule="evenodd" d="M13.5 7.46988H14.3132V7.71084H13.5V7.46988Z" fill="#F9E813"/>
<path fill-rule="evenodd" clip-rule="evenodd" d="M12.6428 8.0482H13.185V8.77109H12.6428V8.0482Z" fill="#F9E813"/>
<path fill-rule="evenodd" clip-rule="evenodd" d="M13.7142 8.04822H14.2564V8.77111H13.7142V8.04822Z" fill="#F9E813"/>
<path fill-rule="evenodd" clip-rule="evenodd" d="M13.2856 8.04822H13.5567V8.77111H13.2856V8.04822Z" fill="#F9E813"/>
<path fill-rule="evenodd" clip-rule="evenodd" d="M12.6428 7.85544H14.1428V8.0964H12.6428V7.85544Z" fill="#060101"/>
<path fill-rule="evenodd" clip-rule="evenodd" d="M12.6428 8.43375H14.1428V8.67471H12.6428V8.43375Z" fill="#060101"/>
<path fill-rule="evenodd" clip-rule="evenodd" d="M12.857 7.66266H13.1281V7.90362H12.857V7.66266Z" fill="#F9E813"/>
<path fill-rule="evenodd" clip-rule="evenodd" d="M13.7142 7.66266H13.9853V7.90362H13.7142V7.66266Z" fill="#F9E813"/>
<path fill-rule="evenodd" clip-rule="evenodd" d="M13.2856 7.46988H13.5567V7.95181H13.2856V7.46988Z" fill="#F9E813"/>
<path fill-rule="evenodd" clip-rule="evenodd" d="M16.9285 7.08435H17.7418V7.56628H16.9285V7.08435Z" fill="#F9E813"/>
<path fill-rule="evenodd" clip-rule="evenodd" d="M16.4999 7.27712H17.9999V7.51809H16.4999V7.27712Z" fill="#060101"/>
<path fill-rule="evenodd" clip-rule="evenodd" d="M16.4999 7.46989H17.3132V7.71086H16.4999V7.46989Z" fill="#F9E813"/>
<path fill-rule="evenodd" clip-rule="evenodd" d="M17.3571 7.46988H18.1704V7.71084H17.3571V7.46988Z" fill="#F9E813"/>
<path fill-rule="evenodd" clip-rule="evenodd" d="M16.4999 8.0482H17.0421V8.77109H16.4999V8.0482Z" fill="#F9E813"/>
<path fill-rule="evenodd" clip-rule="evenodd" d="M17.5714 8.04822H18.1135V8.77111H17.5714V8.04822Z" fill="#F9E813"/>
<path fill-rule="evenodd" clip-rule="evenodd" d="M17.1427 8.04822H17.4138V8.77111H17.1427V8.04822Z" fill="#F9E813"/>
<path fill-rule="evenodd" clip-rule="evenodd" d="M16.4999 7.85544H17.9999V8.0964H16.4999V7.85544Z" fill="#060101"/>
<path fill-rule="evenodd" clip-rule="evenodd" d="M16.4999 8.43375H17.9999V8.67471H16.4999V8.43375Z" fill="#060101"/>
<path fill-rule="evenodd" clip-rule="evenodd" d="M16.7141 7.66266H16.9852V7.90362H16.7141V7.66266Z" fill="#F9E813"/>
<path fill-rule="evenodd" clip-rule="evenodd" d="M17.5714 7.66266H17.8424V7.90362H17.5714V7.66266Z" fill="#F9E813"/>
<path fill-rule="evenodd" clip-rule="evenodd" d="M17.1427 7.46988H17.4138V7.95181H17.1427V7.46988Z" fill="#F9E813"/>
<path fill-rule="evenodd" clip-rule="evenodd" d="M16.9285 10.5542H17.7418V11.0362H16.9285V10.5542Z" fill="#F9E813"/>
<path fill-rule="evenodd" clip-rule="evenodd" d="M16.4999 10.747H17.9999V10.988H16.4999V10.747Z" fill="#060101"/>
<path fill-rule="evenodd" clip-rule="evenodd" d="M16.4999 10.9398H17.3132V11.1807H16.4999V10.9398Z" fill="#F9E813"/>
<path fill-rule="evenodd" clip-rule="evenodd" d="M17.3571 10.9398H18.1704V11.1807H17.3571V10.9398Z" fill="#F9E813"/>
<path fill-rule="evenodd" clip-rule="evenodd" d="M16.4999 11.5181H17.0421V12.241H16.4999V11.5181Z" fill="#F9E813"/>
<path fill-rule="evenodd" clip-rule="evenodd" d="M17.5714 11.5181H18.1135V12.241H17.5714V11.5181Z" fill="#F9E813"/>
<path fill-rule="evenodd" clip-rule="evenodd" d="M17.1427 11.5181H17.4138V12.241H17.1427V11.5181Z" fill="#F9E813"/>
<path fill-rule="evenodd" clip-rule="evenodd" d="M16.4999 11.3253H17.9999V11.5663H16.4999V11.3253Z" fill="#060101"/>
<path fill-rule="evenodd" clip-rule="evenodd" d="M16.4999 11.9036H17.9999V12.1446H16.4999V11.9036Z" fill="#060101"/>
<path fill-rule="evenodd" clip-rule="evenodd" d="M16.7141 11.1325H16.9852V11.3735H16.7141V11.1325Z" fill="#F9E813"/>
<path fill-rule="evenodd" clip-rule="evenodd" d="M17.5714 11.1325H17.8424V11.3735H17.5714V11.1325Z" fill="#F9E813"/>
<path fill-rule="evenodd" clip-rule="evenodd" d="M17.1427 10.9398H17.4138V11.4217H17.1427V10.9398Z" fill="#F9E813"/>
<path fill-rule="evenodd" clip-rule="evenodd" d="M9 10.5542H9.81325V11.0362H9V10.5542Z" fill="#F9E813"/>
<path fill-rule="evenodd" clip-rule="evenodd" d="M8.57141 10.747H10.0714V10.988H8.57141V10.747Z" fill="#060101"/>
<path fill-rule="evenodd" clip-rule="evenodd" d="M8.57141 10.9398H9.38466V11.1807H8.57141V10.9398Z" fill="#F9E813"/>
<path fill-rule="evenodd" clip-rule="evenodd" d="M9.42859 10.9398H10.2418V11.1807H9.42859V10.9398Z" fill="#F9E813"/>
<path fill-rule="evenodd" clip-rule="evenodd" d="M8.57141 11.5181H9.11358V12.241H8.57141V11.5181Z" fill="#F9E813"/>
<path fill-rule="evenodd" clip-rule="evenodd" d="M9.64282 11.5181H10.185V12.241H9.64282V11.5181Z" fill="#F9E813"/>
<path fill-rule="evenodd" clip-rule="evenodd" d="M9.21423 11.5181H9.48532V12.241H9.21423V11.5181Z" fill="#F9E813"/>
<path fill-rule="evenodd" clip-rule="evenodd" d="M8.57141 11.3253H10.0714V11.5663H8.57141V11.3253Z" fill="#060101"/>
<path fill-rule="evenodd" clip-rule="evenodd" d="M8.57141 11.9036H10.0714V12.1446H8.57141V11.9036Z" fill="#060101"/>
<path fill-rule="evenodd" clip-rule="evenodd" d="M8.78564 11.1325H9.05673V11.3735H8.78564V11.1325Z" fill="#F9E813"/>
<path fill-rule="evenodd" clip-rule="evenodd" d="M9.64282 11.1325H9.91391V11.3735H9.64282V11.1325Z" fill="#F9E813"/>
<path fill-rule="evenodd" clip-rule="evenodd" d="M9.21423 10.9398H9.48532V11.4217H9.21423V10.9398Z" fill="#F9E813"/>
<path fill-rule="evenodd" clip-rule="evenodd" d="M9.52173 14.904L10.0445 14.3502L10.4598 14.66L9.93705 15.2137L9.52173 14.904Z" fill="#F9E813"/>
<path fill-rule="evenodd" clip-rule="evenodd" d="M9.41238 15.3197L10.3766 14.2983L10.5842 14.4532L9.62005 15.4746L9.41238 15.3197Z" fill="#060101"/>
<path fill-rule="evenodd" clip-rule="evenodd" d="M9.57843 15.4436L10.1012 14.8899L10.3088 15.0448L9.78609 15.5985L9.57843 15.4436Z" fill="#F9E813"/>
<path fill-rule="evenodd" clip-rule="evenodd" d="M10.1294 14.86L10.6521 14.3062L10.8598 14.4611L10.3371 15.0148L10.1294 14.86Z" fill="#F9E813"/>
<path fill-rule="evenodd" clip-rule="evenodd" d="M10.0769 15.8154L10.4254 15.4462L11.0484 15.9109L10.6999 16.28L10.0769 15.8154Z" fill="#F9E813"/>
<path fill-rule="evenodd" clip-rule="evenodd" d="M10.7656 15.0858L11.1141 14.7166L11.7371 15.1813L11.3886 15.5505L10.7656 15.0858Z" fill="#F9E813"/>
<path fill-rule="evenodd" clip-rule="evenodd" d="M10.4902 15.3776L10.6644 15.193L11.2874 15.6577L11.1132 15.8423L10.4902 15.3776Z" fill="#F9E813"/>
<path fill-rule="evenodd" clip-rule="evenodd" d="M9.91077 15.6914L10.8749 14.67L11.0826 14.8249L10.1184 15.8463L9.91077 15.6914Z" fill="#060101"/>
<path fill-rule="evenodd" clip-rule="evenodd" d="M10.4091 16.0632L11.3733 15.0418L11.581 15.1967L10.6168 16.2181L10.4091 16.0632Z" fill="#060101"/>
<path fill-rule="evenodd" clip-rule="evenodd" d="M9.88232 15.4216L10.0566 15.237L10.2642 15.3919L10.09 15.5765L9.88232 15.4216Z" fill="#F9E813"/>
<path fill-rule="evenodd" clip-rule="evenodd" d="M10.4333 14.838L10.6076 14.6534L10.8152 14.8083L10.641 14.9929L10.4333 14.838Z" fill="#F9E813"/>
<path fill-rule="evenodd" clip-rule="evenodd" d="M9.99164 15.0059L10.1659 14.8213L10.5812 15.1311L10.407 15.3157L9.99164 15.0059Z" fill="#F9E813"/>
<path fill-rule="evenodd" clip-rule="evenodd" d="M16.8507 14.4662L17.3735 15.02L16.9581 15.3298L16.4354 14.776L16.8507 14.4662Z" fill="#F9E813"/>
<path fill-rule="evenodd" clip-rule="evenodd" d="M16.409 14.2983L17.3732 15.3197L17.1655 15.4746L16.2014 14.4532L16.409 14.2983Z" fill="#060101"/>
<path fill-rule="evenodd" clip-rule="evenodd" d="M16.243 14.4222L16.7658 14.976L16.5581 15.1309L16.0353 14.5771L16.243 14.4222Z" fill="#F9E813"/>
<path fill-rule="evenodd" clip-rule="evenodd" d="M16.794 15.0059L17.3167 15.5597L17.1091 15.7145L16.5863 15.1608L16.794 15.0059Z" fill="#F9E813"/>
<path fill-rule="evenodd" clip-rule="evenodd" d="M15.7445 14.794L16.093 15.1632L15.47 15.6278L15.1215 15.2586L15.7445 14.794Z" fill="#F9E813"/>
<path fill-rule="evenodd" clip-rule="evenodd" d="M16.4332 15.5235L16.7817 15.8927L16.1587 16.3574L15.8102 15.9882L16.4332 15.5235Z" fill="#F9E813"/>
<path fill-rule="evenodd" clip-rule="evenodd" d="M16.1577 15.2317L16.332 15.4163L15.709 15.8809L15.5348 15.6964L16.1577 15.2317Z" fill="#F9E813"/>
<path fill-rule="evenodd" clip-rule="evenodd" d="M15.9107 14.67L16.8749 15.6914L16.6672 15.8463L15.703 14.8249L15.9107 14.67Z" fill="#060101"/>
<path fill-rule="evenodd" clip-rule="evenodd" d="M15.4123 15.0418L16.3765 16.0632L16.1688 16.2181L15.2046 15.1967L15.4123 15.0418Z" fill="#060101"/>
<path fill-rule="evenodd" clip-rule="evenodd" d="M16.2146 14.692L16.3888 14.8766L16.1812 15.0315L16.0069 14.8469L16.2146 14.692Z" fill="#F9E813"/>
<path fill-rule="evenodd" clip-rule="evenodd" d="M16.7656 15.2757L16.9398 15.4603L16.7322 15.6152L16.5579 15.4306L16.7656 15.2757Z" fill="#F9E813"/>
<path fill-rule="evenodd" clip-rule="evenodd" d="M16.6562 14.86L16.8305 15.0445L16.4152 15.3543L16.2409 15.1697L16.6562 14.86Z" fill="#F9E813"/>
<path fill-rule="evenodd" clip-rule="evenodd" d="M14.1282 9.20483H12.6428V10.1663C12.6428 10.1663 12.753 10.6628 13.3855 10.6628C14.0179 10.6628 14.1282 10.1663 14.1282 10.1663V9.20483ZM13.2856 9.59038C13.2856 9.69685 13.1896 9.78316 13.0713 9.78316C12.9529 9.78316 12.857 9.69685 12.857 9.59038C12.857 9.48392 12.9529 9.39761 13.0713 9.39761C13.1896 9.39761 13.2856 9.48392 13.2856 9.59038ZM13.0713 10.5542C13.1896 10.5542 13.2856 10.4679 13.2856 10.3615C13.2856 10.255 13.1896 10.1687 13.0713 10.1687C12.9529 10.1687 12.857 10.255 12.857 10.3615C12.857 10.4679 12.9529 10.5542 13.0713 10.5542ZM13.9285 10.3615C13.9285 10.4679 13.8326 10.5542 13.7143 10.5542C13.5959 10.5542 13.5 10.4679 13.5 10.3615C13.5 10.255 13.5959 10.1687 13.7143 10.1687C13.8326 10.1687 13.9285 10.255 13.9285 10.3615ZM13.3928 10.1687C13.5111 10.1687 13.6071 10.0824 13.6071 9.97591C13.6071 9.86945 13.5111 9.78314 13.3928 9.78314C13.2744 9.78314 13.1785 9.86945 13.1785 9.97591C13.1785 10.0824 13.2744 10.1687 13.3928 10.1687ZM13.9285 9.59038C13.9285 9.69685 13.8326 9.78316 13.7143 9.78316C13.5959 9.78316 13.5 9.69685 13.5 9.59038C13.5 9.48392 13.5959 9.39761 13.7143 9.39761C13.8326 9.39761 13.9285 9.48392 13.9285 9.59038Z" fill="#013399"/>
<path fill-rule="evenodd" clip-rule="evenodd" d="M14.1282 11.3253H12.6428V12.2868C12.6428 12.2868 12.753 12.7833 13.3855 12.7833C14.0179 12.7833 14.1282 12.2868 14.1282 12.2868V11.3253ZM13.2856 11.7109C13.2856 11.8173 13.1896 11.9036 13.0713 11.9036C12.9529 11.9036 12.857 11.8173 12.857 11.7109C12.857 11.6044 12.9529 11.5181 13.0713 11.5181C13.1896 11.5181 13.2856 11.6044 13.2856 11.7109ZM13.0713 12.6747C13.1896 12.6747 13.2856 12.5884 13.2856 12.482C13.2856 12.3755 13.1896 12.2892 13.0713 12.2892C12.9529 12.2892 12.857 12.3755 12.857 12.482C12.857 12.5884 12.9529 12.6747 13.0713 12.6747ZM13.9285 12.482C13.9285 12.5884 13.8326 12.6747 13.7143 12.6747C13.5959 12.6747 13.5 12.5884 13.5 12.482C13.5 12.3755 13.5959 12.2892 13.7143 12.2892C13.8326 12.2892 13.9285 12.3755 13.9285 12.482ZM13.3928 12.2892C13.5111 12.2892 13.6071 12.2029 13.6071 12.0964C13.6071 11.9899 13.5111 11.9036 13.3928 11.9036C13.2744 11.9036 13.1785 11.9899 13.1785 12.0964C13.1785 12.2029 13.2744 12.2892 13.3928 12.2892ZM13.9285 11.7109C13.9285 11.8173 13.8326 11.9036 13.7143 11.9036C13.5959 11.9036 13.5 11.8173 13.5 11.7109C13.5 11.6044 13.5959 11.5181 13.7143 11.5181C13.8326 11.5181 13.9285 11.6044 13.9285 11.7109Z" fill="#013399"/>
<path fill-rule="evenodd" clip-rule="evenodd" d="M16.0567 11.3253H14.5713V12.2868C14.5713 12.2868 14.6815 12.7833 15.314 12.7833C15.9464 12.7833 16.0567 12.2868 16.0567 12.2868V11.3253ZM15.2141 11.7109C15.2141 11.8173 15.1182 11.9036 14.9998 11.9036C14.8815 11.9036 14.7855 11.8173 14.7855 11.7109C14.7855 11.6044 14.8815 11.5181 14.9998 11.5181C15.1182 11.5181 15.2141 11.6044 15.2141 11.7109ZM14.9998 12.6747C15.1182 12.6747 15.2141 12.5884 15.2141 12.482C15.2141 12.3755 15.1182 12.2892 14.9998 12.2892C14.8815 12.2892 14.7855 12.3755 14.7855 12.482C14.7855 12.5884 14.8815 12.6747 14.9998 12.6747ZM15.8571 12.482C15.8571 12.5884 15.7611 12.6747 15.6428 12.6747C15.5245 12.6747 15.4285 12.5884 15.4285 12.482C15.4285 12.3755 15.5245 12.2892 15.6428 12.2892C15.7611 12.2892 15.8571 12.3755 15.8571 12.482ZM15.3213 12.2892C15.4397 12.2892 15.5356 12.2029 15.5356 12.0964C15.5356 11.9899 15.4397 11.9036 15.3213 11.9036C15.203 11.9036 15.107 11.9899 15.107 12.0964C15.107 12.2029 15.203 12.2892 15.3213 12.2892ZM15.8571 11.7109C15.8571 11.8173 15.7611 11.9036 15.6428 11.9036C15.5245 11.9036 15.4285 11.8173 15.4285 11.7109C15.4285 11.6044 15.5245 11.5181 15.6428 11.5181C15.7611 11.5181 15.8571 11.6044 15.8571 11.7109Z" fill="#013399"/>
<path fill-rule="evenodd" clip-rule="evenodd" d="M12.1997 11.3253H10.7143V12.2868C10.7143 12.2868 10.8245 12.7833 11.457 12.7833C12.0894 12.7833 12.1997 12.2868 12.1997 12.2868V11.3253ZM11.3571 11.7109C11.3571 11.8173 11.2612 11.9036 11.1429 11.9036C11.0245 11.9036 10.9286 11.8173 10.9286 11.7109C10.9286 11.6044 11.0245 11.5181 11.1429 11.5181C11.2612 11.5181 11.3571 11.6044 11.3571 11.7109ZM11.1429 12.6747C11.2612 12.6747 11.3571 12.5884 11.3571 12.482C11.3571 12.3755 11.2612 12.2892 11.1429 12.2892C11.0245 12.2892 10.9286 12.3755 10.9286 12.482C10.9286 12.5884 11.0245 12.6747 11.1429 12.6747ZM12.0001 12.482C12.0001 12.5884 11.9042 12.6747 11.7858 12.6747C11.6675 12.6747 11.5715 12.5884 11.5715 12.482C11.5715 12.3755 11.6675 12.2892 11.7858 12.2892C11.9042 12.2892 12.0001 12.3755 12.0001 12.482ZM11.4643 12.2892C11.5827 12.2892 11.6786 12.2029 11.6786 12.0964C11.6786 11.9899 11.5827 11.9036 11.4643 11.9036C11.346 11.9036 11.2501 11.9899 11.2501 12.0964C11.2501 12.2029 11.346 12.2892 11.4643 12.2892ZM12.0001 11.7109C12.0001 11.8173 11.9042 11.9036 11.7858 11.9036C11.6675 11.9036 11.5715 11.8173 11.5715 11.7109C11.5715 11.6044 11.6675 11.5181 11.7858 11.5181C11.9042 11.5181 12.0001 11.6044 12.0001 11.7109Z" fill="#013399"/>
<path fill-rule="evenodd" clip-rule="evenodd" d="M14.1282 13.4458H12.6428V14.4073C12.6428 14.4073 12.753 14.9038 13.3855 14.9038C14.0179 14.9038 14.1282 14.4073 14.1282 14.4073V13.4458ZM13.2856 13.8314C13.2856 13.9378 13.1896 14.0241 13.0713 14.0241C12.9529 14.0241 12.857 13.9378 12.857 13.8314C12.857 13.7249 12.9529 13.6386 13.0713 13.6386C13.1896 13.6386 13.2856 13.7249 13.2856 13.8314ZM13.0713 14.7952C13.1896 14.7952 13.2856 14.7089 13.2856 14.6024C13.2856 14.496 13.1896 14.4097 13.0713 14.4097C12.9529 14.4097 12.857 14.496 12.857 14.6024C12.857 14.7089 12.9529 14.7952 13.0713 14.7952ZM13.9285 14.6024C13.9285 14.7089 13.8326 14.7952 13.7143 14.7952C13.5959 14.7952 13.5 14.7089 13.5 14.6024C13.5 14.496 13.5959 14.4097 13.7143 14.4097C13.8326 14.4097 13.9285 14.496 13.9285 14.6024ZM13.3928 14.4097C13.5111 14.4097 13.6071 14.3233 13.6071 14.2169C13.6071 14.1104 13.5111 14.0241 13.3928 14.0241C13.2744 14.0241 13.1785 14.1104 13.1785 14.2169C13.1785 14.3233 13.2744 14.4097 13.3928 14.4097ZM13.9285 13.8314C13.9285 13.9378 13.8326 14.0241 13.7143 14.0241C13.5959 14.0241 13.5 13.9378 13.5 13.8314C13.5 13.7249 13.5959 13.6386 13.7143 13.6386C13.8326 13.6386 13.9285 13.7249 13.9285 13.8314Z" fill="#013399"/>
</g>
</svg>