<svg width="36" height="24" viewBox="0 0 36 24" fill="none" xmlns="http://www.w3.org/2000/svg">
<mask id="mask0_1_6871" style="mask-type:luminance" maskUnits="userSpaceOnUse" x="0" y="0" width="36" height="24">
<rect width="36" height="24" fill="white"/>
</mask>
<g mask="url(#mask0_1_6871)">
<path fill-rule="evenodd" clip-rule="evenodd" d="M0 0V24H36V0H0Z" fill="#F7FCFF"/>
<mask id="mask1_1_6871" style="mask-type:luminance" maskUnits="userSpaceOnUse" x="0" y="0" width="36" height="24">
<path fill-rule="evenodd" clip-rule="evenodd" d="M0 0V24H36V0H0Z" fill="white"/>
</mask>
<g mask="url(#mask1_1_6871)">
<path fill-rule="evenodd" clip-rule="evenodd" d="M0 0V12H36V0H0Z" fill="#E31D1C"/>
<path fill-rule="evenodd" clip-rule="evenodd" d="M9.97697 10.5896C9.97697 10.5896 6.79806 9.4531 6.79806 6.37402C6.79806 3.29495 9.97697 2.19517 9.97697 2.19517C8.43196 1.8475 4.33234 2.15846 4.33234 6.37402C4.33234 10.5896 8.37002 11.3846 9.97697 10.5896ZM10.7914 10.0807L11.7034 9.59128L12.6354 10.0807L12.4073 9.12569L13.165 8.37235H12.1384L11.7034 7.48065L11.2683 8.37235L10.24 8.41099L10.9994 9.12569L10.7914 10.0807ZM15.018 9.53662L14.106 10.026L14.314 9.07103L13.5546 8.35634L14.5829 8.31769L15.018 7.42599L15.453 8.31769H16.4796L15.7219 9.07103L15.95 10.026L15.018 9.53662ZM12.6981 5.76989L13.6101 5.28052L14.5421 5.76989L14.314 4.81493L15.0717 4.06159H14.0451L13.6101 3.16989L13.175 4.06159L12.1467 4.10023L12.9061 4.81493L12.6981 5.76989ZM10.541 7.22266L9.62907 7.71203L9.83708 6.75707L9.07765 6.04237L10.106 6.00373L10.541 5.11203L10.9761 6.00373H12.0027L11.245 6.75707L11.4731 7.71203L10.541 7.22266ZM15.6573 7.66818L16.5692 7.1788L17.5013 7.66818L17.2732 6.71321L18.0309 5.95988H17.0043L16.5692 5.06818L16.1342 5.95988L15.1059 5.99852L15.8653 6.71321L15.6573 7.66818Z" fill="#F1F9FF"/>
</g>
</g>
</svg>
