<svg xmlns="http://www.w3.org/2000/svg" width="36" height="24" viewBox="0 0 36 24" fill="none">
<mask id="mask0_1_10058" style="mask-type:luminance" maskUnits="userSpaceOnUse" x="0" y="0" width="36" height="24">
<rect width="36" height="24" fill="white"/>
</mask>
<g mask="url(#mask0_1_10058)">
<path fill-rule="evenodd" clip-rule="evenodd" d="M0 0V24H36V0H0Z" fill="#FFB400"/>
<mask id="mask1_1_10058" style="mask-type:luminance" maskUnits="userSpaceOnUse" x="0" y="0" width="36" height="24">
<path fill-rule="evenodd" clip-rule="evenodd" d="M0 0V24H36V0H0Z" fill="white"/>
</mask>
<g mask="url(#mask1_1_10058)">
<path fill-rule="evenodd" clip-rule="evenodd" d="M0 0V6H36V0H0Z" fill="#C51918"/>
<path fill-rule="evenodd" clip-rule="evenodd" d="M0 18V24H36V18H0Z" fill="#C51918"/>
<rect x="5.63409" y="10.272" width="1.26" height="5.824" fill="#F1F9FF"/>
<path fill-rule="evenodd" clip-rule="evenodd" d="M7.3981 9.26398H5.1301V9.82398H5.5081V10.272H7.0201V9.82398H7.3981V9.26398Z" fill="#C88A02"/>
<path fill-rule="evenodd" clip-rule="evenodd" d="M7.0201 16.432H7.3981V16.992H5.1301V16.432H5.5081V15.984H7.0201V16.432Z" fill="#C88A02"/>
<path fill-rule="evenodd" clip-rule="evenodd" d="M6.2641 9.37598C6.53829 9.37598 6.56616 9.28421 6.72793 9.14713C6.85355 9.04069 7.1461 8.90869 7.1461 8.75998C7.1461 8.41977 6.75121 8.14398 6.2641 8.14398C5.77698 8.14398 5.3821 8.41977 5.3821 8.75998C5.3821 8.92565 5.58356 9.03642 5.73589 9.14713C5.89638 9.26377 6.01419 9.37598 6.2641 9.37598Z" fill="#AD1619"/>
<path fill-rule="evenodd" clip-rule="evenodd" d="M5.1301 16.9919H7.3981V17.8879C7.3981 17.8879 7.1146 17.7759 6.8311 17.7759C6.5476 17.7759 6.2641 17.8879 6.2641 17.8879C6.2641 17.8879 5.9806 17.7759 5.6971 17.7759C5.4136 17.7759 5.1301 17.8879 5.1301 17.8879V16.9919Z" fill="#005BBF"/>
<mask id="mask2_1_10058" style="mask-type:luminance" maskUnits="userSpaceOnUse" x="5" y="16" width="3" height="2">
<path fill-rule="evenodd" clip-rule="evenodd" d="M5.1301 16.9919H7.3981V17.8879C7.3981 17.8879 7.1146 17.7759 6.8311 17.7759C6.5476 17.7759 6.2641 17.8879 6.2641 17.8879C6.2641 17.8879 5.9806 17.7759 5.6971 17.7759C5.4136 17.7759 5.1301 17.8879 5.1301 17.8879V16.9919Z" fill="white"/>
</mask>
<g mask="url(#mask2_1_10058)">
<path d="M5.1095 17.7119L5.06 17.6046C5.26427 17.5238 5.46928 17.4832 5.67459 17.4832C5.80724 17.4832 5.87651 17.4997 5.99426 17.5462C6.0977 17.5872 6.15131 17.5999 6.26443 17.5999C6.37755 17.5999 6.43117 17.5872 6.5346 17.5462C6.65236 17.4997 6.72162 17.4832 6.85427 17.4832C7.05958 17.4832 7.26459 17.5238 7.46886 17.6046L7.41936 17.7119C7.23041 17.6371 7.04219 17.5999 6.85427 17.5999C6.74115 17.5999 6.68754 17.6126 6.5841 17.6535C6.46635 17.7001 6.39708 17.7165 6.26443 17.7165C6.13178 17.7165 6.06252 17.7001 5.94476 17.6535C5.84132 17.6126 5.78771 17.5999 5.67459 17.5999C5.48668 17.5999 5.29845 17.6371 5.1095 17.7119Z" fill="white"/>
<path d="M5.1095 17.3759L5.06 17.2686C5.26427 17.1878 5.46928 17.1472 5.67459 17.1472C5.80724 17.1472 5.87651 17.1637 5.99426 17.2102C6.0977 17.2512 6.15131 17.2639 6.26443 17.2639C6.37755 17.2639 6.43117 17.2512 6.5346 17.2102C6.65236 17.1637 6.72162 17.1472 6.85427 17.1472C7.05958 17.1472 7.26459 17.1878 7.46886 17.2686L7.41936 17.3759C7.23041 17.3011 7.04219 17.2639 6.85427 17.2639C6.74115 17.2639 6.68754 17.2766 6.5841 17.3175C6.46635 17.3641 6.39708 17.3806 6.26443 17.3806C6.13178 17.3806 6.06252 17.3641 5.94476 17.3175C5.84132 17.2766 5.78771 17.2639 5.67459 17.2639C5.48668 17.2639 5.29845 17.3011 5.1095 17.3759Z" fill="white"/>
</g>
<rect x="17.982" y="10.272" width="1.26" height="5.824" fill="#F1F9FF"/>
<path fill-rule="evenodd" clip-rule="evenodd" d="M19.746 9.26398H17.478V9.82398H17.8561V10.272H19.3681V9.82398H19.746V9.26398Z" fill="#C88A02"/>
<path fill-rule="evenodd" clip-rule="evenodd" d="M19.368 16.432H19.746V16.992H17.478V16.432H17.856V15.984H19.368V16.432Z" fill="#C88A02"/>
<path fill-rule="evenodd" clip-rule="evenodd" d="M18.612 9.37598C18.8862 9.37598 18.9141 9.28421 19.0759 9.14713C19.2015 9.04069 19.494 8.90869 19.494 8.75998C19.494 8.41977 19.0992 8.14398 18.612 8.14398C18.1249 8.14398 17.73 8.41977 17.73 8.75998C17.73 8.92565 17.9315 9.03642 18.0838 9.14713C18.2443 9.26377 18.3621 9.37598 18.612 9.37598Z" fill="#AD1619"/>
<path fill-rule="evenodd" clip-rule="evenodd" d="M17.478 16.9919H19.746V17.8879C19.746 17.8879 19.4625 17.7759 19.179 17.7759C18.8955 17.7759 18.612 17.8879 18.612 17.8879C18.612 17.8879 18.3285 17.7759 18.045 17.7759C17.7615 17.7759 17.478 17.8879 17.478 17.8879V16.9919Z" fill="#005BBF"/>
<mask id="mask3_1_10058" style="mask-type:luminance" maskUnits="userSpaceOnUse" x="17" y="16" width="3" height="2">
<path fill-rule="evenodd" clip-rule="evenodd" d="M17.478 16.9919H19.746V17.8879C19.746 17.8879 19.4625 17.7759 19.179 17.7759C18.8955 17.7759 18.612 17.8879 18.612 17.8879C18.612 17.8879 18.3285 17.7759 18.045 17.7759C17.7615 17.7759 17.478 17.8879 17.478 17.8879V16.9919Z" fill="white"/>
</mask>
<g mask="url(#mask3_1_10058)">
<path d="M17.4575 17.7119L17.408 17.6046C17.6123 17.5238 17.8173 17.4832 18.0226 17.4832C18.1552 17.4832 18.2245 17.4997 18.3423 17.5462C18.4457 17.5872 18.4993 17.5999 18.6124 17.5999C18.7255 17.5999 18.7792 17.5872 18.8826 17.5462C19.0003 17.4997 19.0696 17.4832 19.2023 17.4832C19.4076 17.4832 19.6126 17.5238 19.8169 17.6046L19.7674 17.7119C19.5784 17.6371 19.3902 17.5999 19.2023 17.5999C19.0891 17.5999 19.0355 17.6126 18.9321 17.6535C18.8143 17.7001 18.7451 17.7165 18.6124 17.7165C18.4798 17.7165 18.4105 17.7001 18.2928 17.6535C18.1893 17.6126 18.1357 17.5999 18.0226 17.5999C17.8347 17.5999 17.6464 17.6371 17.4575 17.7119Z" fill="white"/>
<path d="M17.4575 17.3759L17.408 17.2686C17.6123 17.1878 17.8173 17.1472 18.0226 17.1472C18.1552 17.1472 18.2245 17.1637 18.3423 17.2102C18.4457 17.2512 18.4993 17.2639 18.6124 17.2639C18.7255 17.2639 18.7792 17.2512 18.8826 17.2102C19.0003 17.1637 19.0696 17.1472 19.2023 17.1472C19.4076 17.1472 19.6126 17.1878 19.8169 17.2686L19.7674 17.3759C19.5784 17.3011 19.3902 17.2639 19.2023 17.2639C19.0891 17.2639 19.0355 17.2766 18.9321 17.3175C18.8143 17.3641 18.7451 17.3806 18.6124 17.3806C18.4798 17.3806 18.4105 17.3641 18.2928 17.3175C18.1893 17.2766 18.1357 17.2639 18.0226 17.2639C17.8347 17.2639 17.6464 17.3011 17.4575 17.3759Z" fill="white"/>
</g>
<path fill-rule="evenodd" clip-rule="evenodd" d="M5.6115 15.6799C5.83867 15.4351 5.9657 15.2124 5.9657 14.9758C5.9657 14.8267 5.91577 14.6979 5.82829 14.5926L5.84307 14.5867C5.84171 14.5873 6.09228 14.4902 6.17952 14.453C6.34169 14.3839 6.48456 14.3107 6.62386 14.2206C6.71279 14.1631 6.83195 14.1005 7.0136 14.0138C7.04492 13.9989 7.12969 13.9589 7.18397 13.9333L7.18432 13.9331L7.18438 13.9331L7.23038 13.9114C7.31866 13.8695 7.3844 13.8374 7.44548 13.8059C7.63579 13.7078 7.76156 13.6267 7.85775 13.5182C8.08559 13.2614 8.03828 12.9133 7.71902 12.7201C7.56259 12.6254 7.35152 12.5711 7.04211 12.5284L6.97816 12.5196C6.87247 12.505 6.66934 12.4771 6.59958 12.4674C6.45152 12.4467 6.31941 12.4274 6.20161 12.4091C6.97625 12.2946 8.08239 12.3367 8.56895 12.56L9.03139 11.7638C8.03988 11.3088 5.78073 11.3553 4.93683 11.8718C4.31786 12.2508 4.40092 12.8235 5.04493 13.0702C5.31403 13.1732 5.66484 13.2416 6.31402 13.3343C6.20523 13.3904 6.11503 13.4417 6.031 13.496C5.94577 13.5511 5.85446 13.5979 5.74371 13.6451C5.69073 13.6676 5.53384 13.7289 5.46196 13.7569L5.42583 13.7711C4.90126 13.9831 4.64668 14.2764 4.72275 14.8059L4.76394 15.0925L4.8378 15.1126L5.6115 15.6799ZM4.96305 14.9392L4.96146 14.9433L4.96268 14.9404L4.96305 14.9392ZM18.7942 14.9758C18.7942 15.2124 18.9212 15.4351 19.1484 15.6799L19.9221 15.1126L19.996 15.0925L20.0372 14.8059C20.1132 14.2764 19.8587 13.9831 19.3341 13.7711L19.298 13.7569L19.298 13.7569C19.2261 13.7289 19.0692 13.6676 19.0162 13.6451C18.9055 13.5979 18.8141 13.5511 18.7289 13.496C18.6449 13.4417 18.5547 13.3904 18.4459 13.3343C19.0951 13.2416 19.4459 13.1732 19.715 13.0702C20.359 12.8235 20.4421 12.2508 19.8231 11.8718C18.9792 11.3553 16.72 11.3088 15.7285 11.7638L16.191 12.56C16.6775 12.3367 17.7837 12.2946 18.5583 12.4091C18.4405 12.4274 18.3084 12.4467 18.1603 12.4674C18.0905 12.4771 17.8873 12.5051 17.7816 12.5196L17.7178 12.5284C17.4084 12.5711 17.1973 12.6254 17.0409 12.7201C16.7216 12.9133 16.6743 13.2614 16.9022 13.5182C16.9984 13.6267 17.1241 13.7078 17.3144 13.8059C17.3755 13.8374 17.4413 13.8695 17.5295 13.9114L17.5757 13.9331L17.5761 13.9333C17.6304 13.9589 17.715 13.9989 17.7463 14.0138C17.928 14.1005 18.0471 14.1631 18.1361 14.2206C18.2754 14.3107 18.4182 14.3839 18.5804 14.453C18.6676 14.4902 18.9182 14.5873 18.9168 14.5867L18.9316 14.5926C18.8441 14.6979 18.7942 14.8267 18.7942 14.9758Z" fill="#AD1619"/>
<path d="M6.66387 12.4L7.03578 12.4684V12.9612C6.63967 13.2421 5.63409 13.7156 5.63409 13.7156V12.4H6.66387Z" fill="#F1F9FF"/>
<path d="M18.354 12.4L17.9821 12.4684V12.9612C18.3782 13.2421 19.3838 13.7156 19.3838 13.7156V12.4H18.354Z" fill="#F1F9FF"/>
<path fill-rule="evenodd" clip-rule="evenodd" d="M16.6233 7.20597V7.04198C15.9752 6.62854 15.2965 6.42181 14.5872 6.42181C13.9072 6.15434 13.219 6.05051 12.5224 6.11034C12.5226 6.10843 12.5227 6.10745 12.5227 6.10745C11.4753 6.01636 10.4198 6.42181 10.4198 6.42181C9.35589 6.42181 8.38376 7.04198 8.38376 7.04198V7.20597L9.65459 8.34049C9.65459 8.34049 10.0123 9.43249 12.5175 9.17584V9.17861C12.5175 9.17861 14.1761 9.13837 14.2927 9.10391C14.3389 9.09024 14.3869 9.0778 14.4359 9.06508C14.7608 8.98077 15.1317 8.88452 15.3524 8.34049L16.6233 7.20597ZM12.5175 6.16046C12.4813 6.53806 12.2748 8.81517 12.5175 9.16817V6.16046Z" fill="#AD1619"/>
<path fill-rule="evenodd" clip-rule="evenodd" d="M9.35306 8.14957L9.3539 8.14613L8.45984 7.39843L8.54618 7.31686L9.38513 8.01846L9.4066 7.93068C9.54385 7.95721 9.64417 7.96696 9.70264 7.96144V7.80924L9.88861 7.8987C9.98008 7.9427 10.1111 7.95454 10.2836 7.92958C10.4103 7.91125 10.4958 7.78043 10.5238 7.50167L10.5803 6.9389L10.7696 7.47825C10.8553 7.72231 10.986 7.8299 11.172 7.8299C11.3538 7.8299 11.4268 7.77067 11.4349 7.62139L11.4578 7.19801L11.6732 7.57617C11.7508 7.71241 11.8578 7.77422 12.0099 7.77422C12.2276 7.77422 12.3729 7.61294 12.3729 7.3599H12.377H12.6249H12.629C12.629 7.61294 12.7744 7.77422 12.992 7.77422C13.1442 7.77422 13.2512 7.71241 13.3288 7.57617L13.5442 7.19801L13.5671 7.62139C13.5751 7.77067 13.6482 7.8299 13.8299 7.8299C14.016 7.8299 14.1467 7.72231 14.2324 7.47825L14.4217 6.9389L14.4782 7.50167C14.5061 7.78043 14.5916 7.91125 14.7184 7.92958C14.8909 7.95454 15.0219 7.9427 15.1134 7.8987L15.2993 7.80924V7.96144C15.3578 7.96696 15.4581 7.95721 15.5954 7.93068L15.6352 8.09358L16.564 7.31686L16.6503 7.39844L15.4946 8.36495C15.326 8.64098 15.2411 8.82317 15.2411 8.89885C15.2411 9.01431 14.9031 9.08284 14.2436 9.15323C13.7269 9.20838 13.1171 9.24539 12.6183 9.25092V9.25163L12.5557 9.25145L12.4919 9.25164V9.25091C11.9931 9.24538 11.3833 9.20837 10.8666 9.15322C10.207 9.08283 9.86908 9.0143 9.86908 8.89884C9.86908 8.88452 9.86604 8.86639 9.85997 8.84453C9.79348 8.76925 9.74672 8.64612 9.71562 8.53504C9.68641 8.48307 9.65305 8.42633 9.61555 8.36494L9.3595 8.15081L9.35306 8.14957ZM15.5467 8.16759C15.3403 8.20007 15.1913 8.1968 15.1122 8.13957C14.9886 8.17156 14.8435 8.17463 14.6779 8.15067C14.501 8.12509 14.3778 8.0205 14.3037 7.847C14.2069 7.95659 14.0846 8.02424 13.938 8.04611C14.7443 8.14775 15.3092 8.29063 15.3092 8.29063C15.3092 8.29063 15.2952 8.39679 15.2614 8.52159C15.2972 8.45626 15.3397 8.38366 15.3887 8.30353L15.4009 8.28953L15.5467 8.16759ZM13.5575 8.00354C13.4874 7.97257 13.4314 7.92766 13.3909 7.86977C13.3308 7.91697 13.2624 7.95148 13.1865 7.97278C13.3133 7.98139 13.4372 7.99181 13.5575 8.00354ZM12.7417 7.95099C12.6435 7.91067 12.5619 7.84612 12.501 7.7634C12.4405 7.84553 12.3596 7.90976 12.2624 7.95013C12.32 7.9486 12.3779 7.94753 12.4361 7.94695V7.94644L12.4866 7.94657L12.5372 7.94644V7.94695C12.6057 7.94763 12.674 7.949 12.7417 7.95099ZM9.70009 8.28186L9.5826 8.18361C9.72363 8.19604 9.82801 8.18425 9.88974 8.13957C10.0134 8.17156 10.1585 8.17463 10.3241 8.15067C10.501 8.12509 10.6242 8.0205 10.6983 7.847C10.7923 7.95342 10.9104 8.02029 11.0513 8.0441C10.3561 8.13091 9.83742 8.24904 9.70009 8.28186ZM11.81 7.97122C11.688 7.97928 11.5684 7.98903 11.4522 8.00003C11.5187 7.96922 11.5721 7.92551 11.6111 7.86977C11.6697 7.91583 11.7363 7.94982 11.81 7.97122ZM14.9098 8.90104C14.9981 8.93776 15.0688 8.90113 15.1248 8.83081C15.1199 8.85023 15.1169 8.86779 15.1157 8.88352C15.1083 8.88782 15.097 8.893 15.0821 8.89856C15.0406 8.91407 14.9772 8.93059 14.8948 8.94731C14.7327 8.98018 14.502 9.01285 14.2286 9.04203C13.6949 9.09899 13.0603 9.13648 12.5557 9.13945C12.0509 9.13653 11.4157 9.09903 10.8816 9.04202C10.6082 9.01284 10.3775 8.98017 10.2154 8.9473C10.1463 8.93329 10.0906 8.91941 10.0499 8.90616C10.0544 8.90465 10.0589 8.90294 10.0635 8.90104C10.3387 8.78656 12.1589 8.67912 12.4866 8.66058C12.8144 8.67912 14.6345 8.78656 14.9098 8.90104ZM15.2564 8.88105C15.256 8.88134 15.2557 8.88172 15.2553 8.88219L15.2562 8.88106L15.2564 8.88105ZM15.257 8.88052L15.2564 8.88105L15.257 8.88052Z" fill="#C88A02"/>
<path fill-rule="evenodd" clip-rule="evenodd" d="M12.5015 5.34705C12.7103 5.34705 12.8795 5.19662 12.8795 5.01105C12.8795 4.82548 12.7103 4.67505 12.5015 4.67505C12.2927 4.67505 12.1235 4.82548 12.1235 5.01105C12.1235 5.19662 12.2927 5.34705 12.5015 5.34705Z" fill="#005BBF"/>
<path fill-rule="evenodd" clip-rule="evenodd" d="M12.2555 6.99679C12.2636 7.03368 12.2762 7.06802 12.2921 7.09863C12.2433 7.08204 12.1853 7.07243 12.1232 7.07243C11.9492 7.07243 11.8082 7.14765 11.8082 7.24043C11.8082 7.33322 11.9492 7.40843 12.1232 7.40843C12.2971 7.40843 12.4382 7.33322 12.4382 7.24043L12.438 7.23528L12.4384 7.23539L12.4382 7.24043C12.4382 7.33322 12.5793 7.40843 12.7532 7.40843C12.9272 7.40843 13.0682 7.33322 13.0682 7.24043C13.0682 7.14765 12.9272 7.07243 12.7532 7.07243C12.7094 7.07243 12.6677 7.0772 12.6298 7.08583C12.6389 7.03989 12.6385 6.98721 12.6266 6.93268C12.5934 6.78088 12.4834 6.67217 12.381 6.68988C12.2785 6.70758 12.2223 6.84499 12.2555 6.99679ZM10.402 7.21062C10.3861 7.18002 10.3735 7.14569 10.3655 7.10882C10.3323 6.95702 10.3884 6.81961 10.4909 6.80191C10.5934 6.7842 10.7033 6.89291 10.7365 7.04471C10.7485 7.09923 10.7489 7.15189 10.7397 7.19782C10.7776 7.1892 10.8193 7.18443 10.8632 7.18443C11.0371 7.18443 11.1782 7.25965 11.1782 7.35243C11.1782 7.44522 11.0371 7.52043 10.8632 7.52043C10.6892 7.52043 10.5482 7.44522 10.5482 7.35243L10.5483 7.34741L10.548 7.34731L10.5481 7.35243C10.5481 7.44522 10.4071 7.52043 10.2331 7.52043C10.0591 7.52043 9.91809 7.44522 9.91809 7.35243C9.91809 7.25965 10.0591 7.18443 10.2331 7.18443C10.2953 7.18443 10.3532 7.19404 10.402 7.21062ZM14.3484 7.31298C14.3339 7.40486 14.1824 7.4619 14.0101 7.44038C13.8379 7.41886 13.71 7.32693 13.7245 7.23504C13.739 7.14316 13.8905 7.08613 14.0627 7.10765C14.1242 7.11533 14.1801 7.13199 14.2258 7.15441C14.2148 7.12216 14.2078 7.08663 14.2056 7.04914C14.1964 6.89471 14.2736 6.76559 14.3778 6.76073C14.482 6.75587 14.5739 6.87713 14.583 7.03155C14.5863 7.08703 14.5784 7.13923 14.5622 7.18359C14.6011 7.17973 14.6432 7.18017 14.6866 7.18559C14.8589 7.20711 14.9868 7.29904 14.9723 7.39092C14.9577 7.4828 14.8063 7.53984 14.634 7.51832C14.4617 7.4968 14.3339 7.40487 14.3484 7.31299L14.3493 7.30806L14.349 7.30794L14.3484 7.31298ZM15.548 7.75724C15.7017 7.82984 15.8659 7.82228 15.9149 7.74036L15.9175 7.73578C15.9326 7.75002 15.9505 7.76038 15.971 7.76594C16.0708 7.79307 16.1929 7.69517 16.2438 7.54729C16.2947 7.39941 16.255 7.25753 16.1552 7.23041C16.0553 7.20328 15.9332 7.30117 15.8823 7.44905C15.87 7.48497 15.863 7.52053 15.8608 7.55419C15.8265 7.51918 15.7804 7.48651 15.7255 7.46057C15.5719 7.38797 15.4077 7.39553 15.3586 7.47745C15.3096 7.55938 15.3944 7.68464 15.548 7.75724ZM9.36561 7.79154C9.21201 7.86414 9.04776 7.85658 8.99876 7.77466C8.99785 7.77315 8.99699 7.77162 8.99618 7.77009C8.98105 7.78432 8.96313 7.79469 8.9427 7.80024C8.84288 7.82737 8.72072 7.72948 8.66986 7.58159C8.619 7.43371 8.65868 7.29184 8.7585 7.26471C8.85833 7.23758 8.98048 7.33547 9.03134 7.48336C9.0437 7.51927 9.05071 7.55484 9.05282 7.58849C9.08717 7.55348 9.13327 7.52081 9.18815 7.49487C9.34176 7.42227 9.50601 7.42983 9.55501 7.51175C9.60402 7.59368 9.51922 7.71894 9.36561 7.79154Z" fill="#C88A02"/>
<path fill-rule="evenodd" clip-rule="evenodd" d="M12.3603 4.0766H12.6228V4.224H12.7943V4.45734H12.6228V4.924H12.7943V5.15734H12.1861V4.924H12.3603V4.45734H12.1861V4.224H12.3603V4.0766Z" fill="#C88A02"/>
<rect x="12.3122" y="5.34399" width="0.504" height="1.456" fill="#C88A02"/>
<path d="M10.2833 5.58785L10.2811 5.69984C9.16385 5.6825 8.52299 5.82742 8.36031 6.11627C8.19212 6.4149 8.2234 6.77792 8.45906 7.20915L8.34573 7.25809C8.09428 6.79799 8.05995 6.3994 8.24764 6.06614C8.44084 5.7231 9.11879 5.56978 10.2833 5.58785Z" fill="white"/>
<path d="M10.4996 6.58101L10.435 6.67717C10.1917 6.54804 10.0699 6.32766 10.0699 6.02396C10.0699 5.58748 10.3228 5.33153 10.8824 5.15637C11.2395 5.04458 11.7273 5.09041 12.3472 5.29019L12.3042 5.39548C11.7091 5.2037 11.2487 5.16044 10.9242 5.26201C10.411 5.42267 10.1959 5.64034 10.1959 6.02396C10.1959 6.29047 10.297 6.47352 10.4996 6.58101Z" fill="white"/>
<path d="M8.6178 7.03745L8.38003 7.11168C8.13334 6.48733 8.20379 6.06332 8.62532 5.88041C8.99676 5.71924 9.53809 5.65365 10.252 5.67937L10.2418 5.90319C9.56587 5.87884 9.06299 5.93977 8.73587 6.08171C8.45884 6.20191 8.40817 6.5069 8.6178 7.03745Z" fill="#C88A02"/>
<path d="M11.3957 5.43872C10.8195 5.43872 10.5829 5.56346 10.4478 5.93174C10.3616 6.16644 10.4452 6.36676 10.716 6.55374L10.5615 6.73066C10.2108 6.48858 10.0871 6.1921 10.2082 5.86227C10.3804 5.39292 10.7185 5.21472 11.3957 5.21472C11.8396 5.21472 12.1853 5.31838 12.4261 5.52934L12.4636 5.56224V6.6422H12.2116V5.65798C12.0236 5.5128 11.7535 5.43872 11.3957 5.43872Z" fill="#C88A02"/>
<path d="M14.6804 5.69985L14.6826 5.81183C15.7998 5.7945 16.4407 5.93942 16.6034 6.22827C16.7715 6.5269 16.7403 6.88992 16.5046 7.32115L16.6179 7.37009C16.8694 6.90999 16.9037 6.5114 16.716 6.17814C16.5228 5.83509 15.8449 5.68178 14.6804 5.69985Z" fill="white"/>
<path d="M14.2858 6.60426L14.3504 6.70043C14.5937 6.57129 14.7155 6.35092 14.7155 6.04722C14.7155 5.61074 14.4625 5.35478 13.903 5.17962C13.5459 5.06783 13.0581 5.11367 12.4382 5.31345L12.4811 5.41874C13.0762 5.22696 13.5367 5.18369 13.8611 5.28526C14.3743 5.44592 14.5895 5.6636 14.5895 6.04722C14.5895 6.31373 14.4883 6.49677 14.2858 6.60426Z" fill="white"/>
<path d="M16.4243 7.14939L16.6621 7.22362C16.9088 6.59927 16.8384 6.17526 16.4168 5.99235C16.0454 5.83118 15.5041 5.76559 14.7901 5.79131L14.8003 6.01513C15.4763 5.99078 15.9792 6.05171 16.3063 6.19365C16.5833 6.31385 16.634 6.61884 16.4243 7.14939Z" fill="#C88A02"/>
<path d="M13.6322 5.45606C14.2083 5.45606 14.4449 5.58079 14.5801 5.94908C14.6663 6.18378 14.5827 6.38409 14.3118 6.57108L14.4664 6.748C14.8171 6.50592 14.9407 6.20943 14.8197 5.8796C14.6474 5.41025 14.3094 5.23206 13.6322 5.23206C13.1883 5.23206 12.8425 5.33571 12.6018 5.54667L12.5642 5.57957V6.65954H12.8162V5.67531C13.0043 5.53014 13.2744 5.45606 13.6322 5.45606Z" fill="#C88A02"/>
<path opacity="0.3" fill-rule="evenodd" clip-rule="evenodd" d="M8.40608 9.26404H16.5961V15.8049C16.5961 15.8049 15.9877 18 12.5011 18C9.01445 18 8.40608 15.747 8.40608 15.747V9.26404Z" fill="#E1E5E8"/>
<mask id="mask4_1_10058" style="mask-type:luminance" maskUnits="userSpaceOnUse" x="8" y="9" width="9" height="9">
<path fill-rule="evenodd" clip-rule="evenodd" d="M8.40608 9.26404H16.5961V15.8049C16.5961 15.8049 15.9877 18 12.5011 18C9.01445 18 8.40608 15.747 8.40608 15.747V9.26404Z" fill="white"/>
</mask>
<g mask="url(#mask4_1_10058)">
<rect x="8.40608" y="13.296" width="4.158" height="4.368" fill="#FFC034"/>
<rect x="8.91013" y="13.52" width="0.504" height="4.144" fill="#AD1619"/>
<rect x="10.6741" y="13.52" width="0.504" height="4.144" fill="#AD1619"/>
<rect x="9.79219" y="13.52" width="0.504" height="4.144" fill="#AD1619"/>
<rect x="11.5562" y="13.52" width="0.504" height="4.144" fill="#AD1619"/>
<rect x="8.40608" y="9.15204" width="4.158" height="4.256" fill="#AD1619"/>
<rect x="12.4381" y="13.1841" width="4.158" height="4.256" fill="#AD1619"/>
<rect x="12.4381" y="9.26404" width="4.41" height="4.144" fill="#F1F9FF"/>
<path fill-rule="evenodd" clip-rule="evenodd" d="M10.1703 9.60004H10.5483V10.5292H10.8002V10.0646H11.1782V10.5292H11.5562V11.11H11.1783V12.1553H11.5562V12.736H9.28819V12.1553H9.66629V11.11H9.28819V10.5292H9.54022V10.0646H9.91822V10.5292H10.1703V9.60004Z" fill="#C88A02"/>
<path d="M14.6013 9.7951L14.8594 9.54956L15.4011 9.99939L15.143 10.2449L14.6013 9.7951Z" fill="#C88A02"/>
<path fill-rule="evenodd" clip-rule="evenodd" d="M16.1551 16.1401V13.688H13.0051V16.1196L13.0101 16.1385C13.1696 16.7425 13.7126 17.048 14.5801 17.048C15.4468 17.048 15.9898 16.7504 16.1499 16.1595L16.1551 16.1401ZM14.5801 16.712C13.8841 16.712 13.504 16.5036 13.3831 16.08V14.024H15.7771V16.0994C15.6566 16.5093 15.2765 16.712 14.5801 16.712Z" fill="#FFC034"/>
<path fill-rule="evenodd" clip-rule="evenodd" d="M14.7101 13.8929H14.4476V15.0046L13.4128 14.0042L13.2273 14.1558L14.1632 15.0605H13.3152V15.3965H13.9665H14.1838L13.2274 16.3212L13.4129 16.4728L14.4476 15.4724V16.7718H14.7101V15.5893L15.624 16.4728L15.8095 16.3212L14.8531 15.3965H15.9206V15.0605H14.8737L15.8095 14.1558L15.624 14.0042L14.7101 14.8877V13.8929Z" fill="#FFC034"/>
<path fill-rule="evenodd" clip-rule="evenodd" d="M15.1682 17.4427C15.1682 17.4427 12.4995 17.6292 12.4995 16.0992C12.4995 16.0992 12.474 17.4427 9.68741 17.4427V18.6505H15.1682V17.4427Z" fill="#F1F9FF"/>
<path fill-rule="evenodd" clip-rule="evenodd" d="M12.5012 14.192C13.0231 14.192 13.4462 13.7909 13.4462 13.296C13.4462 12.8012 13.0231 12.4 12.5012 12.4C11.9793 12.4 11.5562 12.8012 11.5562 13.296C11.5562 13.7909 11.9793 14.192 12.5012 14.192Z" fill="#005BBF" stroke="#AD1619" stroke-width="1.16667"/>
</g>
</g>
</g>
</svg>